<svg xmlns="http://www.w3.org/2000/svg" width="512" height="512" style="enable-background:new 0 0 512 512" xml:space="preserve"><path style="display:inline" d="M22.268 415.688h88.896v42.583c0 11.711-12.6 21.292-27.999 21.292H50.263c-15.395 0-27.995-9.581-27.995-21.292v-42.583zm383.248 42.583c0 11.711 12.601 21.292 27.995 21.292h32.902c15.403 0 28.004-9.581 28.004-21.292v-42.583h-88.901v42.583zM511.5 243.358v151.038H.5V243.358c0-23.42 19.163-42.583 42.583-42.583h42.583V75.021c0-23.421 19.163-42.583 42.583-42.583h255.5c23.421 0 42.583 19.163 42.583 42.583v125.754h42.584c23.422 0 42.584 19.163 42.584 42.583zm-383.25-42.583h255.533l-.033-125.737c0 .008-.008.017-.013.017-.017 0-.037-.017-.063-.033H128.267c.042.008-.029.079-.05.125l.033 125.628zm-21.292 119.1c0-17.641-14.297-31.938-31.938-31.938s-31.938 14.297-31.938 31.938 14.297 31.938 31.938 31.938 31.938-14.297 31.938-31.938zm361.959 0c0-17.641-14.297-31.938-31.938-31.938s-31.938 14.297-31.938 31.938 14.297 31.938 31.938 31.938 31.938-14.297 31.938-31.938z" fill="#2b59a2"/></svg>