<svg xmlns="http://www.w3.org/2000/svg" width="512" height="512" style="enable-background:new 0 0 512 512" xml:space="preserve"><path style="display:inline" d="M256 43.083c117.403 0 212.917 95.513 212.917 212.917 0 117.403-95.514 212.917-212.917 212.917-117.404 0-212.917-95.514-212.917-212.917 0-117.404 95.513-212.917 212.917-212.917M256 .5C114.893.5.5 114.893.5 256 .5 397.106 114.893 511.5 256 511.5c141.106 0 255.5-114.394 255.5-255.5C511.5 114.893 397.106.5 256 .5zm21.292 234.208V85.667h-42.583v191.626h127.749v-42.584h-85.166z" fill="#df5353"/></svg>