<?xml version="1.0" encoding="UTF-8" standalone="no"?>
<svg width="60px" height="60px" viewBox="0 0 60 60" version="1.1" xmlns="http://www.w3.org/2000/svg" xmlns:xlink="http://www.w3.org/1999/xlink" xmlns:sketch="http://www.bohemiancoding.com/sketch/ns">
    <!-- Generator: Sketch 3.2.2 (9983) - http://www.bohemiancoding.com/sketch -->
    <title>Dropbox</title>
    <desc>Created with Sketch.</desc>
    <defs></defs>
    <g id="stroked" stroke="none" stroke-width="1" fill="none" fill-rule="evenodd" sketch:type="MSPage">
        <g id="Brands" sketch:type="MSLayerGroup" transform="translate(-237.000000, -476.000000)" stroke-width="2" stroke="#7d9d21">
            <g id="Dropbox" transform="translate(240.000000, 482.000000)" sketch:type="MSShapeGroup">
                <path d="M54.4225064,10.1288146 L38.4856375,7.46920829e-16 L27.529661,9.13911206 L16.8201189,0 L0.422506355,10.6248748 L11.7147412,19.1700602 L0.422506355,27.716507 L11.657888,34.336424 L16.8202246,37.3776438 L27.5297666,29.2036363 L38.2358214,37.3776438 L43.469066,34.253905 L54.4225064,27.716507 L43.9629917,18.7989874 L54.4225064,10.1288146 Z M27.5629486,9.61267659 L43.0307255,18.4525127 L27.421978,28.7415298 L11.9102402,19.0203696 L27.5629486,9.61267659 L27.5629486,9.61267659 Z M38.6988899,40.880541 L43.469066,38.0336877 L43.469066,40.622472 L27.3853087,51 L11.657888,40.5517264 L11.657888,38.1114763 L16.3618058,40.88401 L16.8854261,41.1915904 L17.3686786,40.8239866 L27.529661,33.0682506 L37.6871561,40.8239866 L38.1740015,41.1940082 L38.6988899,40.880541 L38.6988899,40.880541 Z"></path>
            </g>
        </g>
    </g>
</svg>